<svg width="24" height="25" viewBox="0 0 24 25" fill="none" xmlns="http://www.w3.org/2000/svg">
<path fill-rule="evenodd" clip-rule="evenodd" d="M12 3.55273C7.86586 3.55273 4.18305 6.86007 3.16847 10.802C3.03081 11.3368 2.48563 11.6588 1.95078 11.5212C1.41592 11.3835 1.09394 10.8383 1.2316 10.3035C2.43723 5.61926 6.81495 1.55273 12 1.55273C18.0751 1.55273 23 6.4776 23 12.5527C23 18.6279 18.0751 23.5527 12 23.5527C6.67713 23.5527 2.2393 19.773 1.22002 14.7517C1.11016 14.2104 1.45986 13.6826 2.0011 13.5727C2.54235 13.4629 3.07018 13.8126 3.18005 14.3538C4.01385 18.4614 7.64704 21.5527 12 21.5527C16.9706 21.5527 21 17.5233 21 12.5527C21 7.58217 16.9706 3.55273 12 3.55273Z" fill="white" fill-opacity="0.45"/>
<circle cx="12" cy="12.5527" r="6" stroke="white" stroke-opacity="0.45" stroke-width="2"/>
<circle cx="12" cy="12.5527" r="1" stroke="white" stroke-opacity="0.45" stroke-width="2"/>
</svg>
