<svg width="42" height="42" viewBox="0 0 42 42" fill="none" xmlns="http://www.w3.org/2000/svg">
<rect x="0.5" y="0.5" width="41" height="41" rx="5.5" stroke="#E86E84" stroke-linejoin="round"/>
<path fill-rule="evenodd" clip-rule="evenodd" d="M21 13C21.5523 13 22 13.4477 22 14V28C22 28.5523 21.5523 29 21 29C20.4477 29 20 28.5523 20 28V14C20 13.4477 20.4477 13 21 13Z" fill="#E86E84"/>
<path fill-rule="evenodd" clip-rule="evenodd" d="M13 21C13 20.4477 13.4477 20 14 20H28C28.5523 20 29 20.4477 29 21C29 21.5523 28.5523 22 28 22H14C13.4477 22 13 21.5523 13 21Z" fill="#E86E84"/>
</svg>
