<svg width="24" height="24" viewBox="0 0 24 24" fill="none" xmlns="http://www.w3.org/2000/svg">
<g clip-path="url(#clip0_30_958)">
<path d="M6.375 21.75V2.25C3 4.2 0.75 7.8375 0.75 12C0.75 16.1625 3 19.8 6.375 21.75Z" fill="#699635"/>
<path d="M12 0.75C9.9375 0.75 8.025 1.3125 6.375 2.25V21.75C8.025 22.725 9.9375 23.25 12 23.25C18.225 23.25 23.25 18.225 23.25 12C23.25 5.775 18.225 0.75 12 0.75Z" fill="#ED4C5C"/>
<path d="M6.375 7.5C3.9 7.5 1.875 9.525 1.875 12C1.875 14.475 3.9 16.5 6.375 16.5C8.85 16.5 10.875 14.475 10.875 12C10.875 9.525 8.85 7.5 6.375 7.5ZM6.375 15.9375C4.2 15.9375 2.4375 14.175 2.4375 12C2.4375 9.825 4.2 8.0625 6.375 8.0625C8.55 8.0625 10.3125 9.825 10.3125 12C10.3125 14.175 8.55 15.9375 6.375 15.9375Z" fill="#FFE62E"/>
<path d="M7.91243 16.3875C7.83743 16.4625 7.72493 16.4625 7.64993 16.3875L2.51243 9.60001C2.43743 9.52501 2.43743 9.41251 2.51243 9.33751L2.62493 9.22501C2.69993 9.15001 2.81243 9.15001 2.88743 9.22501L8.02493 16.0125C8.09993 16.0875 8.09993 16.2 8.02493 16.275L7.91243 16.3875Z" fill="#FFE62E"/>
<path d="M6.44995 7.3125C6.56245 7.3125 6.63745 7.3875 6.63745 7.5V16.5C6.63745 16.6125 6.56245 16.6875 6.44995 16.6875H6.26245C6.14995 16.6875 6.07495 16.6125 6.07495 16.5V7.5C6.07495 7.3875 6.14995 7.3125 6.26245 7.3125H6.44995Z" fill="#FFE62E"/>
<path d="M10.8375 12.4875L6.375 11.7V12.2625L10.7625 13.05C10.875 13.05 10.95 13.0125 10.9875 12.9L11.025 12.7125C11.025 12.6375 10.95 12.525 10.8375 12.4875Z" fill="#FFE62E"/>
<path d="M6.37496 11.6625L2.84996 9.18749C2.77496 9.11249 2.66246 9.14999 2.58746 9.22499L2.47496 9.37499C2.39996 9.44999 2.43746 9.56249 2.51246 9.63749L6.37496 12.3375V11.6625Z" fill="#FFE62E"/>
<path d="M6.22493 11.25L2.69993 14.775C2.62493 14.85 2.62493 14.9625 2.69993 15.0375L2.84993 15.1875C2.92493 15.2625 3.03743 15.2625 3.11243 15.1875L6.22493 12.075V11.25Z" fill="#FFE62E"/>
<path d="M6.37499 9.5625L1.68749 11.775C1.61249 11.8125 1.53749 11.925 1.61249 12.0375L1.68749 12.225C1.72499 12.3 1.83749 12.375 1.94999 12.3L6.37499 10.2V9.5625Z" fill="#FFE62E"/>
<path d="M10.5375 10.2L6.07495 9.41251V9.97501L10.4625 10.7625C10.575 10.7625 10.65 10.725 10.6875 10.6125L10.725 10.425C10.6875 10.3125 10.6125 10.2 10.5375 10.2Z" fill="#FFE62E"/>
<path d="M6.33751 14.5875C6.26251 14.625 6.18751 14.7375 6.26251 14.85L6.33751 15.0375C6.37501 15.1125 6.48751 15.1875 6.60001 15.1125L10.35 13.3875L10.5375 12.675L6.33751 14.5875Z" fill="#FFE62E"/>
<path d="M6.33745 13.3125L2.13745 11.775V12.375L6.33745 13.9125V13.3125Z" fill="#FFE62E"/>
<path d="M3.41248 14.55V15.1125L8.96248 15.4875C9.18748 15.3375 9.37498 15.15 9.56248 14.9625L3.41248 14.55Z" fill="#FFE62E"/>
<path d="M4.5 10.125V12.75C4.5 13.8 5.325 14.625 6.375 14.625C7.425 14.625 8.25 13.8 8.25 12.75V10.125H4.5Z" fill="white"/>
<path d="M6.375 15.375C4.9125 15.375 3.75 14.2125 3.75 12.75V9.375H9V12.75C9 14.2125 7.8375 15.375 6.375 15.375ZM5.25 10.875V12.75C5.25 13.3875 5.7375 13.875 6.375 13.875C7.0125 13.875 7.5 13.3875 7.5 12.75V10.875H5.25Z" fill="#ED4C5C"/>
<path d="M6.03748 11.025V11.625C6.03748 11.7375 6.11248 11.8125 6.22498 11.8125H6.52498C6.63748 11.8125 6.71248 11.7375 6.71248 11.625V10.9875H6.03748V11.025Z" fill="#0071BC"/>
<path d="M6.03748 11.9625V12.6C6.03748 12.7125 6.11248 12.7875 6.22498 12.7875H6.52498C6.63748 12.7875 6.71248 12.7125 6.71248 12.6V11.9625H6.03748Z" fill="#0071BC"/>
<path d="M5.28748 11.9625V12.6C5.28748 12.7125 5.36248 12.7875 5.47498 12.7875H5.77498C5.88748 12.7875 5.96248 12.7125 5.96248 12.6V11.9625H5.28748Z" fill="#0071BC"/>
<path d="M6.78748 11.9625V12.6C6.78748 12.7125 6.86248 12.7875 6.97498 12.7875H7.27498C7.38748 12.7875 7.46248 12.7125 7.46248 12.6V11.9625H6.78748Z" fill="#0071BC"/>
<path d="M6.03748 12.8625V13.5C6.03748 13.6125 6.11248 13.6875 6.22498 13.6875H6.52498C6.63748 13.6875 6.71248 13.6125 6.71248 13.5V12.8625H6.03748Z" fill="#0071BC"/>
<path d="M6.37505 12.4125C6.41647 12.4125 6.45005 12.3789 6.45005 12.3375C6.45005 12.2961 6.41647 12.2625 6.37505 12.2625C6.33363 12.2625 6.30005 12.2961 6.30005 12.3375C6.30005 12.3789 6.33363 12.4125 6.37505 12.4125Z" fill="white"/>
<path d="M6.22502 12.6C6.26645 12.6 6.30002 12.5664 6.30002 12.525C6.30002 12.4836 6.26645 12.45 6.22502 12.45C6.1836 12.45 6.15002 12.4836 6.15002 12.525C6.15002 12.5664 6.1836 12.6 6.22502 12.6Z" fill="white"/>
<path d="M6.52507 12.6C6.56649 12.6 6.60007 12.5664 6.60007 12.525C6.60007 12.4836 6.56649 12.45 6.52507 12.45C6.48365 12.45 6.45007 12.4836 6.45007 12.525C6.45007 12.5664 6.48365 12.6 6.52507 12.6Z" fill="white"/>
<path d="M6.22502 12.225C6.26645 12.225 6.30002 12.1914 6.30002 12.15C6.30002 12.1086 6.26645 12.075 6.22502 12.075C6.1836 12.075 6.15002 12.1086 6.15002 12.15C6.15002 12.1914 6.1836 12.225 6.22502 12.225Z" fill="white"/>
<path d="M6.52507 12.225C6.56649 12.225 6.60007 12.1914 6.60007 12.15C6.60007 12.1086 6.56649 12.075 6.52507 12.075C6.48365 12.075 6.45007 12.1086 6.45007 12.15C6.45007 12.1914 6.48365 12.225 6.52507 12.225Z" fill="white"/>
<path d="M6.37505 11.475C6.41647 11.475 6.45005 11.4414 6.45005 11.4C6.45005 11.3586 6.41647 11.325 6.37505 11.325C6.33363 11.325 6.30005 11.3586 6.30005 11.4C6.30005 11.4414 6.33363 11.475 6.37505 11.475Z" fill="white"/>
<path d="M6.22502 11.6625C6.26645 11.6625 6.30002 11.6289 6.30002 11.5875C6.30002 11.5461 6.26645 11.5125 6.22502 11.5125C6.1836 11.5125 6.15002 11.5461 6.15002 11.5875C6.15002 11.6289 6.1836 11.6625 6.22502 11.6625Z" fill="white"/>
<path d="M6.52507 11.6625C6.56649 11.6625 6.60007 11.6289 6.60007 11.5875C6.60007 11.5461 6.56649 11.5125 6.52507 11.5125C6.48365 11.5125 6.45007 11.5461 6.45007 11.5875C6.45007 11.6289 6.48365 11.6625 6.52507 11.6625Z" fill="white"/>
<path d="M6.22502 11.2875C6.26645 11.2875 6.30002 11.2539 6.30002 11.2125C6.30002 11.1711 6.26645 11.1375 6.22502 11.1375C6.1836 11.1375 6.15002 11.1711 6.15002 11.2125C6.15002 11.2539 6.1836 11.2875 6.22502 11.2875Z" fill="white"/>
<path d="M6.52507 11.2875C6.56649 11.2875 6.60007 11.2539 6.60007 11.2125C6.60007 11.1711 6.56649 11.1375 6.52507 11.1375C6.48365 11.1375 6.45007 11.1711 6.45007 11.2125C6.45007 11.2539 6.48365 11.2875 6.52507 11.2875Z" fill="white"/>
<path d="M7.12505 12.4125C7.16647 12.4125 7.20005 12.3789 7.20005 12.3375C7.20005 12.2961 7.16647 12.2625 7.12505 12.2625C7.08363 12.2625 7.05005 12.2961 7.05005 12.3375C7.05005 12.3789 7.08363 12.4125 7.12505 12.4125Z" fill="white"/>
<path d="M6.97502 12.6C7.01645 12.6 7.05002 12.5664 7.05002 12.525C7.05002 12.4836 7.01645 12.45 6.97502 12.45C6.9336 12.45 6.90002 12.4836 6.90002 12.525C6.90002 12.5664 6.9336 12.6 6.97502 12.6Z" fill="white"/>
<path d="M7.27507 12.6C7.31649 12.6 7.35007 12.5664 7.35007 12.525C7.35007 12.4836 7.31649 12.45 7.27507 12.45C7.23365 12.45 7.20007 12.4836 7.20007 12.525C7.20007 12.5664 7.23365 12.6 7.27507 12.6Z" fill="white"/>
<path d="M6.97502 12.225C7.01645 12.225 7.05002 12.1914 7.05002 12.15C7.05002 12.1086 7.01645 12.075 6.97502 12.075C6.9336 12.075 6.90002 12.1086 6.90002 12.15C6.90002 12.1914 6.9336 12.225 6.97502 12.225Z" fill="white"/>
<path d="M7.27507 12.225C7.31649 12.225 7.35007 12.1914 7.35007 12.15C7.35007 12.1086 7.31649 12.075 7.27507 12.075C7.23365 12.075 7.20007 12.1086 7.20007 12.15C7.20007 12.1914 7.23365 12.225 7.27507 12.225Z" fill="white"/>
<path d="M5.62505 12.4125C5.66647 12.4125 5.70005 12.3789 5.70005 12.3375C5.70005 12.2961 5.66647 12.2625 5.62505 12.2625C5.58363 12.2625 5.55005 12.2961 5.55005 12.3375C5.55005 12.3789 5.58363 12.4125 5.62505 12.4125Z" fill="white"/>
<path d="M5.47502 12.6C5.51645 12.6 5.55002 12.5664 5.55002 12.525C5.55002 12.4836 5.51645 12.45 5.47502 12.45C5.4336 12.45 5.40002 12.4836 5.40002 12.525C5.40002 12.5664 5.4336 12.6 5.47502 12.6Z" fill="white"/>
<path d="M5.77507 12.6C5.81649 12.6 5.85007 12.5664 5.85007 12.525C5.85007 12.4836 5.81649 12.45 5.77507 12.45C5.73365 12.45 5.70007 12.4836 5.70007 12.525C5.70007 12.5664 5.73365 12.6 5.77507 12.6Z" fill="white"/>
<path d="M5.47502 12.225C5.51645 12.225 5.55002 12.1914 5.55002 12.15C5.55002 12.1086 5.51645 12.075 5.47502 12.075C5.4336 12.075 5.40002 12.1086 5.40002 12.15C5.40002 12.1914 5.4336 12.225 5.47502 12.225Z" fill="white"/>
<path d="M5.77507 12.225C5.81649 12.225 5.85007 12.1914 5.85007 12.15C5.85007 12.1086 5.81649 12.075 5.77507 12.075C5.73365 12.075 5.70007 12.1086 5.70007 12.15C5.70007 12.1914 5.73365 12.225 5.77507 12.225Z" fill="white"/>
<path d="M6.37505 13.35C6.41647 13.35 6.45005 13.3164 6.45005 13.275C6.45005 13.2336 6.41647 13.2 6.37505 13.2C6.33363 13.2 6.30005 13.2336 6.30005 13.275C6.30005 13.3164 6.33363 13.35 6.37505 13.35Z" fill="white"/>
<path d="M6.22502 13.5375C6.26645 13.5375 6.30002 13.5039 6.30002 13.4625C6.30002 13.4211 6.26645 13.3875 6.22502 13.3875C6.1836 13.3875 6.15002 13.4211 6.15002 13.4625C6.15002 13.5039 6.1836 13.5375 6.22502 13.5375Z" fill="white"/>
<path d="M6.52507 13.5375C6.56649 13.5375 6.60007 13.5039 6.60007 13.4625C6.60007 13.4211 6.56649 13.3875 6.52507 13.3875C6.48365 13.3875 6.45007 13.4211 6.45007 13.4625C6.45007 13.5039 6.48365 13.5375 6.52507 13.5375Z" fill="white"/>
<path d="M6.22502 13.1625C6.26645 13.1625 6.30002 13.1289 6.30002 13.0875C6.30002 13.0461 6.26645 13.0125 6.22502 13.0125C6.1836 13.0125 6.15002 13.0461 6.15002 13.0875C6.15002 13.1289 6.1836 13.1625 6.22502 13.1625Z" fill="white"/>
<path d="M6.52507 13.1625C6.56649 13.1625 6.60007 13.1289 6.60007 13.0875C6.60007 13.0461 6.56649 13.0125 6.52507 13.0125C6.48365 13.0125 6.45007 13.0461 6.45007 13.0875C6.45007 13.1289 6.48365 13.1625 6.52507 13.1625Z" fill="white"/>
<path d="M6 10.5H6.75L6.675 10.125V9.75H6.75V9.5625H6.6375V9.675H6.6V9.5625H6.4875V9.675H6.4125V9.5625H6.3375V9.675H6.2625V9.5625H6.15V9.675H6.075V9.5625H6V9.75H6.075V10.125L6 10.5Z" fill="#FFE62E"/>
<path d="M6.48757 10.5H6.45007V10.35C6.45007 10.3125 6.41257 10.275 6.37507 10.275C6.33757 10.275 6.30007 10.3125 6.30007 10.35V10.5H6.26257V10.35C6.26257 10.275 6.30007 10.2375 6.37507 10.2375C6.45007 10.2375 6.48757 10.275 6.48757 10.35V10.5Z" fill="#3E4347"/>
<path d="M6.37502 10.0875H6.15002V9.90001C6.15002 9.82501 6.18752 9.78751 6.26252 9.78751C6.33752 9.78751 6.37502 9.82501 6.37502 9.90001V10.0875ZM6.18752 10.05H6.33752V9.90001C6.33752 9.86251 6.30002 9.82501 6.26252 9.82501C6.22502 9.82501 6.18752 9.86251 6.18752 9.90001V10.05Z" fill="#3E4347"/>
<path d="M6.6 10.0875H6.375V9.90001C6.375 9.82501 6.4125 9.78751 6.4875 9.78751C6.5625 9.78751 6.6 9.82501 6.6 9.90001V10.0875ZM6.4125 10.05H6.5625V9.90001C6.5625 9.86251 6.525 9.82501 6.4875 9.82501C6.45 9.82501 6.4125 9.86251 6.4125 9.90001V10.05Z" fill="#3E4347"/>
<path d="M4.125 10.5H4.875L4.8 10.125V9.75H4.875V9.5625H4.7625V9.675H4.725V9.5625H4.6125V9.675H4.5375V9.5625H4.4625V9.675H4.3875V9.5625H4.275V9.675H4.2V9.5625H4.125V9.75H4.2V10.125L4.125 10.5Z" fill="#FFE62E"/>
<path d="M4.61257 10.5H4.57507V10.35C4.57507 10.3125 4.53757 10.275 4.50007 10.275C4.46257 10.275 4.42507 10.3125 4.42507 10.35V10.5H4.38757V10.35C4.38757 10.275 4.42507 10.2375 4.50007 10.2375C4.57507 10.2375 4.61257 10.275 4.61257 10.35V10.5Z" fill="#3E4347"/>
<path d="M4.50002 10.0875H4.27502V9.90001C4.27502 9.82501 4.31252 9.78751 4.38752 9.78751C4.46252 9.78751 4.50002 9.82501 4.50002 9.90001V10.0875ZM4.31252 10.05H4.46252V9.90001C4.46252 9.86251 4.42502 9.82501 4.38752 9.82501C4.35002 9.82501 4.31252 9.86251 4.31252 9.90001V10.05Z" fill="#3E4347"/>
<path d="M4.725 10.0875H4.5V9.90001C4.5 9.82501 4.5375 9.78751 4.6125 9.78751C4.6875 9.78751 4.725 9.82501 4.725 9.90001V10.0875ZM4.5375 10.05H4.6875V9.90001C4.6875 9.86251 4.65 9.82501 4.6125 9.82501C4.575 9.82501 4.5375 9.86251 4.5375 9.90001V10.05Z" fill="#3E4347"/>
<path d="M4.125 12.7125H4.875L4.8 12.3375V11.9625H4.875V11.775H4.8V11.8875H4.725V11.775H4.65V11.8875H4.5375V11.775H4.4625V11.8875H4.3875V11.775H4.3125V11.8875H4.2375V11.775H4.125V11.9625H4.2375V12.3375L4.125 12.7125Z" fill="#FFE62E"/>
<path d="M4.61257 12.7125H4.57507V12.5625C4.57507 12.525 4.53757 12.4875 4.50007 12.4875C4.46257 12.4875 4.42507 12.525 4.42507 12.5625V12.7125H4.38757V12.5625C4.38757 12.4875 4.42507 12.45 4.50007 12.45C4.57507 12.45 4.61257 12.4875 4.61257 12.5625V12.7125Z" fill="#3E4347"/>
<path d="M4.50002 12.3H4.27502V12.1125C4.27502 12.0375 4.31252 12 4.38752 12C4.46252 12 4.50002 12.0375 4.50002 12.1125V12.3ZM4.31252 12.2625H4.46252V12.1125C4.46252 12.075 4.42502 12.0375 4.38752 12.0375C4.35002 12.0375 4.31252 12.075 4.31252 12.1125V12.2625Z" fill="#3E4347"/>
<path d="M4.76248 12.3H4.53748V12.1125C4.53748 12.0375 4.57498 12 4.64998 12C4.72498 12 4.76248 12.0375 4.76248 12.1125V12.3ZM4.57498 12.2625H4.72498V12.1125C4.72498 12.075 4.68748 12.0375 4.64998 12.0375C4.61248 12.0375 4.57498 12.075 4.57498 12.1125V12.2625Z" fill="#3E4347"/>
<path d="M7.875 12.75H8.625L8.55 12.375V12H8.625V11.85H8.5125V11.925H8.475V11.85H8.3625V11.925H8.2875V11.85H8.2125V11.925H8.1375V11.85H8.025V11.925H7.95V11.85H7.875V12H7.95V12.375L7.875 12.75Z" fill="#FFE62E"/>
<path d="M8.36257 12.75H8.32507V12.6C8.32507 12.5625 8.28757 12.525 8.25007 12.525C8.21257 12.525 8.17507 12.5625 8.17507 12.6V12.75H8.13757V12.6C8.13757 12.525 8.17507 12.4875 8.25007 12.4875C8.32507 12.4875 8.36257 12.525 8.36257 12.6V12.75Z" fill="#3E4347"/>
<path d="M8.25002 12.3375H8.02502V12.15C8.02502 12.075 8.06252 12.0375 8.13752 12.0375C8.21252 12.0375 8.25002 12.075 8.25002 12.15V12.3375ZM8.06252 12.3H8.21252V12.15C8.21252 12.1125 8.17502 12.075 8.13752 12.075C8.10002 12.075 8.06252 12.1125 8.06252 12.15V12.3Z" fill="#3E4347"/>
<path d="M8.475 12.3375H8.25V12.15C8.25 12.075 8.2875 12.0375 8.3625 12.0375C8.4375 12.0375 8.475 12.075 8.475 12.15V12.3375ZM8.2875 12.3H8.4375V12.15C8.4375 12.1125 8.4 12.075 8.3625 12.075C8.325 12.075 8.2875 12.1125 8.2875 12.15V12.3Z" fill="#3E4347"/>
<path d="M7.875 10.5H8.625L8.55 10.125V9.75H8.625V9.5625H8.5125V9.675H8.475V9.5625H8.3625V9.675H8.2875V9.5625H8.2125V9.675H8.1375V9.5625H8.025V9.675H7.95V9.5625H7.875V9.75H7.95V10.125L7.875 10.5Z" fill="#FFE62E"/>
<path d="M8.36257 10.5H8.32507V10.35C8.32507 10.3125 8.28757 10.275 8.25007 10.275C8.21257 10.275 8.17507 10.3125 8.17507 10.35V10.5H8.13757V10.35C8.13757 10.275 8.17507 10.2375 8.25007 10.2375C8.32507 10.2375 8.36257 10.275 8.36257 10.35V10.5Z" fill="#3E4347"/>
<path d="M8.25002 10.0875H8.02502V9.90001C8.02502 9.82501 8.06252 9.78751 8.13752 9.78751C8.21252 9.78751 8.25002 9.82501 8.25002 9.90001V10.0875ZM8.06252 10.05H8.21252V9.90001C8.21252 9.86251 8.17502 9.82501 8.13752 9.82501C8.10002 9.82501 8.06252 9.86251 8.06252 9.90001V10.05Z" fill="#3E4347"/>
<path d="M8.475 10.0875H8.25V9.90001C8.25 9.82501 8.2875 9.78751 8.3625 9.78751C8.4375 9.78751 8.475 9.82501 8.475 9.90001V10.0875ZM8.2875 10.05H8.4375V9.90001C8.4375 9.86251 8.4 9.82501 8.3625 9.82501C8.325 9.82501 8.2875 9.86251 8.2875 9.90001V10.05Z" fill="#3E4347"/>
<path d="M5.325 14.85L5.85 14.2875L5.5125 14.1L5.25 13.8375L5.325 13.7625L5.2125 13.65L5.1375 13.725L5.2125 13.8L5.175 13.8375L5.1 13.7625L5.025 13.8375L5.1 13.875L5.025 13.95L4.9875 13.875L4.9125 13.95L4.9875 14.025L4.9125 14.0625L4.875 13.9875L4.8 14.0625L4.8375 14.1375L4.8 14.175L4.7625 14.1L4.6875 14.175L4.8 14.2875H4.8375L4.875 14.25L5.1375 14.5125L5.325 14.85Z" fill="#FFE62E"/>
<path d="M5.66248 14.475L5.51248 14.4C5.47498 14.3625 5.43748 14.3625 5.39998 14.4C5.36248 14.4375 5.36248 14.475 5.39998 14.5125L5.51248 14.625L5.47498 14.6625L5.36248 14.55C5.32498 14.5125 5.32498 14.4375 5.36248 14.4C5.39998 14.3625 5.47498 14.3625 5.51248 14.4L5.66248 14.475Z" fill="#3E4347"/>
<path d="M5.28745 14.2875L5.13745 14.4375L5.02495 14.325C4.98745 14.2875 4.98745 14.2125 5.02495 14.175C5.06245 14.1375 5.13745 14.1375 5.17495 14.175L5.28745 14.2875ZM5.13745 14.4L5.24995 14.2875L5.13745 14.175C5.09995 14.1375 5.06245 14.1375 5.02495 14.175C4.98745 14.2125 4.98745 14.25 5.02495 14.2875L5.13745 14.4Z" fill="#3E4347"/>
<path d="M5.47495 14.1L5.32495 14.25L5.21245 14.1375C5.17495 14.1 5.17495 14.025 5.21245 13.9875C5.24995 13.95 5.32495 13.95 5.36245 13.9875L5.47495 14.1ZM5.32495 14.2125L5.43745 14.1L5.32495 13.9875C5.28745 13.95 5.24995 13.95 5.21245 13.9875C5.17495 14.025 5.17495 14.0625 5.21245 14.1L5.32495 14.2125Z" fill="#3E4347"/>
<path d="M7.42502 14.85L6.90002 14.2875L7.20002 14.1L7.46252 13.8375L7.42502 13.7625L7.53752 13.65L7.61252 13.725L7.53752 13.8L7.57502 13.8375L7.65002 13.7625L7.72502 13.8375L7.65002 13.875L7.72502 13.95L7.76252 13.875L7.83752 13.95L7.76252 14.025L7.83752 14.0625L7.87502 13.9875L7.95002 14.0625L7.87502 14.1375L7.95002 14.175L7.98752 14.1L8.06252 14.175L7.95002 14.2875H7.91252L7.87502 14.25L7.61252 14.5125L7.42502 14.85Z" fill="#FFE62E"/>
<path d="M7.08752 14.475L7.23752 14.4C7.27502 14.3625 7.31252 14.3625 7.35002 14.4C7.38752 14.4375 7.38752 14.475 7.35002 14.5125L7.20002 14.625L7.23752 14.6625L7.35002 14.55C7.38752 14.5125 7.38752 14.4375 7.35002 14.4C7.31252 14.3625 7.23752 14.3625 7.20002 14.4L7.08752 14.475Z" fill="#3E4347"/>
<path d="M7.57502 14.175C7.61252 14.1375 7.68752 14.1375 7.72502 14.175C7.76252 14.2125 7.76252 14.2875 7.72502 14.325L7.61252 14.4375L7.46252 14.2875L7.57502 14.175ZM7.68752 14.2875C7.72502 14.25 7.72502 14.2125 7.68752 14.175C7.65002 14.1375 7.61252 14.1375 7.57502 14.175L7.50002 14.2875L7.61252 14.4L7.68752 14.2875Z" fill="#3E4347"/>
<path d="M7.38752 13.9875C7.42502 13.95 7.50002 13.95 7.53752 13.9875C7.57502 14.025 7.57502 14.1 7.53752 14.1375L7.42502 14.25L7.27502 14.1L7.38752 13.9875ZM7.53752 14.1C7.57502 14.0625 7.57502 14.025 7.53752 13.9875C7.50002 13.95 7.46252 13.95 7.42502 13.9875L7.31252 14.1L7.42502 14.2125L7.53752 14.1Z" fill="#3E4347"/>
</g>
<defs>
<clipPath id="clip0_30_958">
<rect width="24" height="24" fill="white"/>
</clipPath>
</defs>
</svg>
