<svg width="24" height="24" viewBox="0 0 24 24" fill="none" xmlns="http://www.w3.org/2000/svg">
<g clip-path="url(#clip0_30_959)">
<path d="M11.9625 0.75C7.04998 0.75 2.88748 3.9 1.34998 8.25H22.575C21.0375 3.9 16.875 0.75 11.9625 0.75Z" fill="#3E4347"/>
<path d="M11.9625 23.25C16.875 23.25 21.0375 20.1375 22.575 15.75H1.34998C2.88748 20.1375 7.04998 23.25 11.9625 23.25Z" fill="#FFE62E"/>
<path d="M1.35002 8.25C0.937524 9.4125 0.712524 10.6875 0.712524 12C0.712524 13.3125 0.937524 14.5875 1.35002 15.75H22.575C22.9875 14.5875 23.2125 13.3125 23.2125 12C23.2125 10.6875 22.9875 9.4125 22.575 8.25H1.35002Z" fill="#ED4C5C"/>
</g>
<defs>
<clipPath id="clip0_30_959">
<rect width="24" height="24" fill="white"/>
</clipPath>
</defs>
</svg>
