<svg width="24" height="25" viewBox="0 0 24 25" fill="none" xmlns="http://www.w3.org/2000/svg">
<path d="M3 12.5528V16.5528C3.00036 16.9035 3.09294 17.2479 3.26846 17.5516C3.44398 17.8552 3.69626 18.1074 4 18.2828L11 22.2828C11.304 22.4583 11.6489 22.5507 12 22.5507C12.3511 22.5507 12.696 22.4583 13 22.2828L20 18.2828C20.3037 18.1074 20.556 17.8552 20.7315 17.5516C20.9071 17.2479 20.9996 16.9035 21 16.5528V8.55276C20.9996 8.20203 20.9071 7.85757 20.7315 7.55392C20.556 7.25027 20.3037 6.99812 20 6.82276L13 2.82276C12.696 2.64722 12.3511 2.55481 12 2.55481C11.6489 2.55481 11.304 2.64722 11 2.82276L4 6.82276C3.69626 6.99812 3.44398 7.25027 3.26846 7.55392C3.09294 7.85757 3.00036 8.20203 3 8.55276V9.55276M15 12.5528C15 14.2096 13.6569 15.5528 12 15.5528C10.3431 15.5528 9 14.2096 9 12.5528C9 10.8959 10.3431 9.55276 12 9.55276C13.6569 9.55276 15 10.8959 15 12.5528Z" stroke="white" stroke-opacity="0.45" stroke-width="2" stroke-linecap="round" stroke-linejoin="round"/>
</svg>
