<svg width="24" height="25" viewBox="0 0 24 25" fill="none" xmlns="http://www.w3.org/2000/svg">
<path d="M12 11.5527C14.2091 11.5527 16 9.76187 16 7.55273C16 5.3436 14.2091 3.55273 12 3.55273C9.79086 3.55273 8 5.3436 8 7.55273C8 9.76187 9.79086 11.5527 12 11.5527Z" stroke="white" stroke-opacity="0.45" stroke-width="2" stroke-linecap="round" stroke-linejoin="round"/>
<path d="M16.5 21.6949C17.888 21.445 18.9884 21.0643 19.5 20.5527C19.5719 19.9059 19.5 18.8861 19.5 18.8861C19.5 18.002 19.0786 17.1542 18.3284 16.5291C15.9595 14.5549 8.04053 14.5549 5.67158 16.5291C4.92143 17.1542 4.5 18.002 4.5 18.8861C4.5 18.8861 4.42813 19.9059 4.5 20.5527C5.01157 21.0643 6.11198 21.445 7.5 21.6949" stroke="white" stroke-opacity="0.45" stroke-width="2" stroke-linecap="round" stroke-linejoin="round"/>
</svg>
