<svg width="20" height="20" viewBox="0 0 20 20" fill="none" xmlns="http://www.w3.org/2000/svg">
<path fill-rule="evenodd" clip-rule="evenodd" d="M9 2C5.13401 2 2 5.13401 2 9C2 12.866 5.13401 16 9 16C10.95 16 12.6819 15.2298 13.9483 13.9512C14.1356 13.7621 14.3905 13.6555 14.6566 13.6549C14.9228 13.6543 15.1781 13.7598 15.3662 13.9481L19.7074 18.2932C20.0978 18.6839 20.0975 19.3171 19.7068 19.7074C19.3161 20.0978 18.6829 20.0975 18.2926 19.7068L14.6222 16.0331C13.0815 17.2744 11.1344 18 9 18C4.02944 18 0 13.9706 0 9C0 4.02944 4.02944 0 9 0C13.9706 0 18 4.02944 18 9C18 10.2053 17.7625 11.3576 17.3309 12.4109C17.1215 12.9219 16.5374 13.1664 16.0264 12.957C15.5153 12.7476 15.2708 12.1635 15.4803 11.6525C15.815 10.8357 16 9.94072 16 9C16 5.13401 12.866 2 9 2Z" fill="#293148" fill-opacity="0.45"/>
</svg>
